<?xml version="1.0" standalone="no"?>
<!DOCTYPE svg PUBLIC "-//W3C//DTD SVG 20010904//EN"
 "http://www.w3.org/TR/2001/REC-SVG-20010904/DTD/svg10.dtd">
<svg version="1.0" xmlns="http://www.w3.org/2000/svg"
 width="486.000000pt" height="203.000000pt" viewBox="0 0 486.000000 203.000000"
 preserveAspectRatio="xMidYMid meet">

<g transform="translate(0.000000,203.000000) scale(0.100000,-0.100000)"
fill="#000000" stroke="none">
<path d="M1503 1865 c-76 -21 -129 -51 -184 -102 -89 -83 -126 -205 -107 -348
9 -69 45 -162 72 -184 9 -8 67 -11 180 -9 l167 3 -60 44 c-99 72 -157 140
-177 206 -41 144 18 276 151 337 75 34 199 31 276 -5 106 -51 195 -178 220
-313 6 -32 13 -69 15 -81 3 -17 11 -23 29 -23 l25 0 0 113 c0 61 3 170 7 240
l6 129 -23 -4 c-16 -2 -27 -15 -39 -47 -23 -64 -39 -70 -98 -38 -156 86 -170
91 -293 94 -79 2 -131 -2 -167 -12z"/>
<path d="M2464 1855 c-4 -8 -3 -27 0 -41 4 -14 7 -117 7 -229 0 -156 3 -204
13 -208 26 -10 37 11 51 99 27 165 55 229 125 285 64 51 123 59 447 59 l294 0
-16 -31 c-9 -17 -90 -150 -181 -295 -90 -145 -164 -266 -164 -269 0 -3 46 -5
103 -5 l103 0 187 304 c103 167 187 313 187 325 l0 21 -575 0 c-503 0 -576 -2
-581 -15z"/>
<path d="M1416 1071 c-24 -27 -14 -52 31 -76 44 -23 59 -65 24 -65 -12 0 -30
5 -41 12 -26 16 -40 0 -16 -18 25 -18 67 -18 90 -1 30 22 17 59 -31 85 -24 13
-43 30 -43 38 0 21 29 29 52 15 26 -16 47 -2 23 16 -27 19 -69 16 -89 -6z"/>
<path d="M1609 1086 c-2 -2 -3 -43 -1 -90 3 -66 7 -86 18 -86 9 0 14 11 14 34
0 30 4 35 30 41 27 6 60 37 60 57 0 22 -43 48 -78 48 -21 0 -41 -2 -43 -4z
m80 -33 c12 -23 -4 -53 -29 -53 -16 0 -20 7 -20 35 0 28 4 35 20 35 10 0 23
-8 29 -17z"/>
<path d="M1810 1000 c0 -73 3 -90 15 -90 12 0 15 17 15 90 0 73 -3 90 -15 90
-12 0 -15 -17 -15 -90z"/>
<path d="M1930 1000 c0 -73 3 -90 15 -90 10 0 15 11 15 35 0 24 5 35 14 35 8
0 24 -16 36 -35 12 -19 28 -35 37 -35 12 0 11 7 -6 36 -20 33 -20 38 -6 54 21
24 19 67 -4 80 -11 5 -38 10 -60 10 l-41 0 0 -90z m88 41 c4 -25 -12 -41 -40
-41 -14 0 -18 8 -18 36 0 33 2 35 28 32 20 -2 28 -9 30 -27z"/>
<path d="M2140 1000 c0 -73 3 -90 15 -90 12 0 15 17 15 90 0 73 -3 90 -15 90
-12 0 -15 -17 -15 -90z"/>
<path d="M2255 1080 c3 -5 17 -10 31 -10 23 0 24 -2 24 -80 0 -64 3 -80 15
-80 12 0 15 16 15 80 0 78 1 80 24 80 14 0 28 5 31 10 4 6 -22 10 -70 10 -48
0 -74 -4 -70 -10z"/>
<path d="M2595 1080 c3 -5 27 -10 51 -10 l46 0 -46 -64 c-70 -98 -70 -96 14
-96 45 0 69 4 65 10 -3 6 -26 10 -51 10 l-45 0 51 72 c27 39 50 75 50 80 0 4
-32 8 -71 8 -44 0 -68 -4 -64 -10z"/>
<path d="M2834 1067 c-59 -51 -23 -157 53 -157 49 0 83 37 83 90 0 79 -77 117
-136 67z m90 -19 c32 -46 8 -118 -39 -118 -28 0 -45 26 -45 70 0 17 5 40 10
51 14 26 55 24 74 -3z"/>
<path d="M3052 1003 c2 -56 7 -88 15 -90 8 -3 13 15 15 58 l3 62 43 -61 c24
-34 47 -62 53 -62 5 0 9 41 9 90 0 101 -17 124 -22 28 l-3 -61 -43 61 c-61 88
-73 83 -70 -25z"/>
<path d="M3282 1003 l3 -88 63 -3 c43 -2 62 0 57 7 -3 6 -26 11 -51 11 -42 0
-44 1 -44 30 0 28 2 30 39 30 22 0 43 5 46 10 4 6 -12 10 -39 10 -44 0 -46 1
-46 30 0 28 3 30 38 30 20 0 44 5 52 10 11 7 -5 10 -53 10 l-68 0 3 -87z"/>
<path d="M1207 753 c-3 -4 -7 -132 -8 -283 l-3 -275 23 0 c20 0 26 8 37 46 8
26 22 50 31 53 10 4 56 -13 118 -43 115 -58 171 -71 297 -71 307 0 500 168
499 435 0 44 -4 94 -9 110 l-8 30 -137 3 c-75 1 -137 0 -137 -2 0 -3 13 -24
29 -48 43 -65 54 -110 49 -202 -7 -133 -70 -224 -183 -263 -72 -26 -202 -23
-278 6 -139 54 -240 225 -266 451 -5 46 -9 55 -28 58 -11 2 -23 -1 -26 -5z"/>
<path d="M2727 723 c-97 -153 -282 -453 -294 -476 -30 -60 -57 -57 578 -57
l582 0 -6 83 c-4 45 -7 155 -7 245 l0 162 -24 0 c-22 0 -25 -6 -31 -47 -10
-77 -36 -192 -51 -229 -18 -42 -78 -110 -113 -128 -58 -30 -139 -37 -420 -37
-156 0 -285 2 -288 4 -2 3 60 110 140 239 79 128 149 243 156 256 l12 22 -106
0 -105 0 -23 -37z"/>
</g>
</svg>
